<svg xmlns="http://www.w3.org/2000/svg" viewBox="0 0 800 600" width="800" height="600">
<defs>
<radialGradient id="bg" cx="50%" cy="42%" r="75%"><stop offset="0%" stop-color="#ffffff"/><stop offset="65%" stop-color="#eef2f7"/><stop offset="100%" stop-color="#dfe6ee"/></radialGradient>
<filter id="blur" x="-20%" y="-200%" width="140%" height="500%"><feGaussianBlur stdDeviation="14"/></filter>
<filter id="soft" x="-10%" y="-10%" width="120%" height="120%"><feGaussianBlur stdDeviation="1.2"/></filter>
<linearGradient id="steel-b" x1="0" y1="0" x2="0" y2="1"><stop offset="0%" stop-color="#6f7a86"/><stop offset="20%" stop-color="#c9d1da"/><stop offset="40%" stop-color="#f7f9fb"/><stop offset="60%" stop-color="#d4dbe3"/><stop offset="80%" stop-color="#9aa5b1"/><stop offset="100%" stop-color="#5b6570"/></linearGradient><linearGradient id="steel-f" x1="0" y1="0" x2="1" y2="1"><stop offset="0%" stop-color="#f3f6f9"/><stop offset="50%" stop-color="#c5cdd6"/><stop offset="100%" stop-color="#8e99a5"/></linearGradient><linearGradient id="steel-h" x1="0" y1="0" x2="1" y2="0"><stop offset="0%" stop-color="#6f7a86"/><stop offset="20%" stop-color="#c9d1da"/><stop offset="40%" stop-color="#f7f9fb"/><stop offset="60%" stop-color="#d4dbe3"/><stop offset="80%" stop-color="#9aa5b1"/><stop offset="100%" stop-color="#5b6570"/></linearGradient><linearGradient id="steelDark-b" x1="0" y1="0" x2="0" y2="1"><stop offset="0%" stop-color="#4f5863"/><stop offset="20%" stop-color="#99a3ae"/><stop offset="40%" stop-color="#d7dde3"/><stop offset="60%" stop-color="#aab3bd"/><stop offset="80%" stop-color="#6f7984"/><stop offset="100%" stop-color="#3d454e"/></linearGradient><linearGradient id="steelDark-f" x1="0" y1="0" x2="1" y2="1"><stop offset="0%" stop-color="#d9dfe5"/><stop offset="50%" stop-color="#a3adb8"/><stop offset="100%" stop-color="#6b7581"/></linearGradient><linearGradient id="steelDark-h" x1="0" y1="0" x2="1" y2="0"><stop offset="0%" stop-color="#4f5863"/><stop offset="20%" stop-color="#99a3ae"/><stop offset="40%" stop-color="#d7dde3"/><stop offset="60%" stop-color="#aab3bd"/><stop offset="80%" stop-color="#6f7984"/><stop offset="100%" stop-color="#3d454e"/></linearGradient><linearGradient id="carbon-b" x1="0" y1="0" x2="0" y2="1"><stop offset="0%" stop-color="#15171a"/><stop offset="20%" stop-color="#3b4048"/><stop offset="40%" stop-color="#6b727c"/><stop offset="60%" stop-color="#3a3f46"/><stop offset="80%" stop-color="#1d2024"/><stop offset="100%" stop-color="#0c0d0f"/></linearGradient><linearGradient id="carbon-f" x1="0" y1="0" x2="1" y2="1"><stop offset="0%" stop-color="#5d646e"/><stop offset="50%" stop-color="#2a2e34"/><stop offset="100%" stop-color="#101214"/></linearGradient><linearGradient id="carbon-h" x1="0" y1="0" x2="1" y2="0"><stop offset="0%" stop-color="#15171a"/><stop offset="20%" stop-color="#3b4048"/><stop offset="40%" stop-color="#6b727c"/><stop offset="60%" stop-color="#3a3f46"/><stop offset="80%" stop-color="#1d2024"/><stop offset="100%" stop-color="#0c0d0f"/></linearGradient><linearGradient id="sic-b" x1="0" y1="0" x2="0" y2="1"><stop offset="0%" stop-color="#3a4049"/><stop offset="20%" stop-color="#6f7985"/><stop offset="40%" stop-color="#a9b3bf"/><stop offset="60%" stop-color="#7c8691"/><stop offset="80%" stop-color="#4c545e"/><stop offset="100%" stop-color="#2b3037"/></linearGradient><linearGradient id="sic-f" x1="0" y1="0" x2="1" y2="1"><stop offset="0%" stop-color="#b6bfca"/><stop offset="50%" stop-color="#7d8793"/><stop offset="100%" stop-color="#4a525c"/></linearGradient><linearGradient id="sic-h" x1="0" y1="0" x2="1" y2="0"><stop offset="0%" stop-color="#3a4049"/><stop offset="20%" stop-color="#6f7985"/><stop offset="40%" stop-color="#a9b3bf"/><stop offset="60%" stop-color="#7c8691"/><stop offset="80%" stop-color="#4c545e"/><stop offset="100%" stop-color="#2b3037"/></linearGradient><linearGradient id="tc-b" x1="0" y1="0" x2="0" y2="1"><stop offset="0%" stop-color="#7a7f86"/><stop offset="20%" stop-color="#c4c9cf"/><stop offset="40%" stop-color="#eef1f4"/><stop offset="60%" stop-color="#c9ced4"/><stop offset="80%" stop-color="#8d939a"/><stop offset="100%" stop-color="#62676e"/></linearGradient><linearGradient id="tc-f" x1="0" y1="0" x2="1" y2="1"><stop offset="0%" stop-color="#f4f6f8"/><stop offset="50%" stop-color="#c6cbd1"/><stop offset="100%" stop-color="#8a9097"/></linearGradient><linearGradient id="tc-h" x1="0" y1="0" x2="1" y2="0"><stop offset="0%" stop-color="#7a7f86"/><stop offset="20%" stop-color="#c4c9cf"/><stop offset="40%" stop-color="#eef1f4"/><stop offset="60%" stop-color="#c9ced4"/><stop offset="80%" stop-color="#8d939a"/><stop offset="100%" stop-color="#62676e"/></linearGradient><linearGradient id="ceramic-b" x1="0" y1="0" x2="0" y2="1"><stop offset="0%" stop-color="#c9c5b8"/><stop offset="20%" stop-color="#ece9df"/><stop offset="40%" stop-color="#fffdf6"/><stop offset="60%" stop-color="#efece2"/><stop offset="80%" stop-color="#d4d0c3"/><stop offset="100%" stop-color="#b3ae9f"/></linearGradient><linearGradient id="ceramic-f" x1="0" y1="0" x2="1" y2="1"><stop offset="0%" stop-color="#fffef9"/><stop offset="50%" stop-color="#ece8dc"/><stop offset="100%" stop-color="#cfcabb"/></linearGradient><linearGradient id="ceramic-h" x1="0" y1="0" x2="1" y2="0"><stop offset="0%" stop-color="#c9c5b8"/><stop offset="20%" stop-color="#ece9df"/><stop offset="40%" stop-color="#fffdf6"/><stop offset="60%" stop-color="#efece2"/><stop offset="80%" stop-color="#d4d0c3"/><stop offset="100%" stop-color="#b3ae9f"/></linearGradient><linearGradient id="rubber-b" x1="0" y1="0" x2="0" y2="1"><stop offset="0%" stop-color="#0d0e10"/><stop offset="20%" stop-color="#26292d"/><stop offset="40%" stop-color="#40444a"/><stop offset="60%" stop-color="#282b2f"/><stop offset="80%" stop-color="#141517"/><stop offset="100%" stop-color="#070808"/></linearGradient><linearGradient id="rubber-f" x1="0" y1="0" x2="1" y2="1"><stop offset="0%" stop-color="#3b3f45"/><stop offset="50%" stop-color="#1f2226"/><stop offset="100%" stop-color="#0c0d0f"/></linearGradient><linearGradient id="rubber-h" x1="0" y1="0" x2="1" y2="0"><stop offset="0%" stop-color="#0d0e10"/><stop offset="20%" stop-color="#26292d"/><stop offset="40%" stop-color="#40444a"/><stop offset="60%" stop-color="#282b2f"/><stop offset="80%" stop-color="#141517"/><stop offset="100%" stop-color="#070808"/></linearGradient><linearGradient id="cast-b" x1="0" y1="0" x2="0" y2="1"><stop offset="0%" stop-color="#3f4a57"/><stop offset="20%" stop-color="#76828f"/><stop offset="40%" stop-color="#a6b1bd"/><stop offset="60%" stop-color="#7f8b97"/><stop offset="80%" stop-color="#55606c"/><stop offset="100%" stop-color="#333c46"/></linearGradient><linearGradient id="cast-f" x1="0" y1="0" x2="1" y2="1"><stop offset="0%" stop-color="#b3bdc8"/><stop offset="50%" stop-color="#7d8894"/><stop offset="100%" stop-color="#505a66"/></linearGradient><linearGradient id="cast-h" x1="0" y1="0" x2="1" y2="0"><stop offset="0%" stop-color="#3f4a57"/><stop offset="20%" stop-color="#76828f"/><stop offset="40%" stop-color="#a6b1bd"/><stop offset="60%" stop-color="#7f8b97"/><stop offset="80%" stop-color="#55606c"/><stop offset="100%" stop-color="#333c46"/></linearGradient><linearGradient id="brass-b" x1="0" y1="0" x2="0" y2="1"><stop offset="0%" stop-color="#7a5a1c"/><stop offset="20%" stop-color="#c79b3f"/><stop offset="40%" stop-color="#f2d488"/><stop offset="60%" stop-color="#cfa550"/><stop offset="80%" stop-color="#946d25"/><stop offset="100%" stop-color="#5f4413"/></linearGradient><linearGradient id="brass-f" x1="0" y1="0" x2="1" y2="1"><stop offset="0%" stop-color="#f5dc98"/><stop offset="50%" stop-color="#c99d44"/><stop offset="100%" stop-color="#8a6420"/></linearGradient><linearGradient id="brass-h" x1="0" y1="0" x2="1" y2="0"><stop offset="0%" stop-color="#7a5a1c"/><stop offset="20%" stop-color="#c79b3f"/><stop offset="40%" stop-color="#f2d488"/><stop offset="60%" stop-color="#cfa550"/><stop offset="80%" stop-color="#946d25"/><stop offset="100%" stop-color="#5f4413"/></linearGradient><linearGradient id="blue-b" x1="0" y1="0" x2="0" y2="1"><stop offset="0%" stop-color="#123a7a"/><stop offset="20%" stop-color="#2a63c4"/><stop offset="40%" stop-color="#6d9df0"/><stop offset="60%" stop-color="#3570d6"/><stop offset="80%" stop-color="#1c4ea8"/><stop offset="100%" stop-color="#0e2d61"/></linearGradient><linearGradient id="blue-f" x1="0" y1="0" x2="1" y2="1"><stop offset="0%" stop-color="#78a6f2"/><stop offset="50%" stop-color="#3a73d8"/><stop offset="100%" stop-color="#1a4799"/></linearGradient><linearGradient id="blue-h" x1="0" y1="0" x2="1" y2="0"><stop offset="0%" stop-color="#123a7a"/><stop offset="20%" stop-color="#2a63c4"/><stop offset="40%" stop-color="#6d9df0"/><stop offset="60%" stop-color="#3570d6"/><stop offset="80%" stop-color="#1c4ea8"/><stop offset="100%" stop-color="#0e2d61"/></linearGradient><linearGradient id="orange-b" x1="0" y1="0" x2="0" y2="1"><stop offset="0%" stop-color="#9a4a0b"/><stop offset="20%" stop-color="#e07a1f"/><stop offset="40%" stop-color="#ffb266"/><stop offset="60%" stop-color="#ea8a33"/><stop offset="80%" stop-color="#b85c12"/><stop offset="100%" stop-color="#7a3a08"/></linearGradient><linearGradient id="orange-f" x1="0" y1="0" x2="1" y2="1"><stop offset="0%" stop-color="#ffc080"/><stop offset="50%" stop-color="#e8842a"/><stop offset="100%" stop-color="#a95410"/></linearGradient><linearGradient id="orange-h" x1="0" y1="0" x2="1" y2="0"><stop offset="0%" stop-color="#9a4a0b"/><stop offset="20%" stop-color="#e07a1f"/><stop offset="40%" stop-color="#ffb266"/><stop offset="60%" stop-color="#ea8a33"/><stop offset="80%" stop-color="#b85c12"/><stop offset="100%" stop-color="#7a3a08"/></linearGradient><linearGradient id="hole-b" x1="0" y1="0" x2="0" y2="1"><stop offset="0%" stop-color="#0b0c0e"/><stop offset="20%" stop-color="#1d2024"/><stop offset="40%" stop-color="#2c3036"/><stop offset="60%" stop-color="#1a1d21"/><stop offset="80%" stop-color="#0b0c0e"/><stop offset="100%" stop-color="#050506"/></linearGradient><linearGradient id="hole-f" x1="0" y1="0" x2="1" y2="1"><stop offset="0%" stop-color="#1c1f23"/><stop offset="50%" stop-color="#0e0f11"/><stop offset="100%" stop-color="#050506"/></linearGradient><linearGradient id="hole-h" x1="0" y1="0" x2="1" y2="0"><stop offset="0%" stop-color="#0b0c0e"/><stop offset="20%" stop-color="#1d2024"/><stop offset="40%" stop-color="#2c3036"/><stop offset="60%" stop-color="#1a1d21"/><stop offset="80%" stop-color="#0b0c0e"/><stop offset="100%" stop-color="#050506"/></linearGradient>
</defs>
<rect width="800" height="600" fill="url(#bg)"/>
<ellipse cx="400" cy="470" rx="280" ry="18" fill="#0b1f3f" opacity="0.22" filter="url(#blur)"/>
<path d="M462 90V280A58 19.72 0 0 0 578 280V90Z" fill="url(#steel-h)" stroke="#4b545e" stroke-opacity=".45"/><ellipse cx="520" cy="90" rx="58" ry="19.72" fill="url(#steel-f)"/><ellipse cx="520" cy="90" rx="46" ry="15.64" fill="url(#hole-f)"/><path d="M462 110h116" stroke="#4b545e" stroke-opacity=".5"/><path d="M462 270Q462 348 430 348V232Q460 232 462 270Z" fill="url(#steel-b)"/><path d="M578 270Q578 348 520 348L430 348V270Z" fill="url(#steel-b)" opacity=".9"/><path d="M390 228H430A21.08 62 0 0 1 430 352H390Z" fill="url(#steel-b)" stroke="#4b545e" stroke-opacity="0.45" stroke-width="1"/><ellipse cx="390" cy="290" rx="21.08" ry="62" fill="url(#steel-f)" stroke="#4b545e" stroke-opacity="0.5" stroke-width="1"/><path d="M250 204H390A29.24 86 0 0 1 390 376H250Z" fill="url(#steel-b)" stroke="#4b545e" stroke-opacity="0.45" stroke-width="1"/><ellipse cx="250" cy="290" rx="29.24" ry="86" fill="url(#steel-f)" stroke="#4b545e" stroke-opacity="0.5" stroke-width="1"/><rect x="276.32" y="245.28" width="113.68" height="4.3" rx="1" fill="#fff" opacity="0.55"/><ellipse cx="290" cy="250" rx="8" ry="9" fill="#1b1f24"/><ellipse cx="340" cy="250" rx="8" ry="9" fill="#1b1f24"/><rect x="310" y="186" width="12" height="20" fill="url(#brass-h)"/><circle cx="316" cy="184" r="7" fill="url(#brass-f)"/><path d="M210 232H250A19.72 58 0 0 1 250 348H210Z" fill="url(#steel-b)" stroke="#4b545e" stroke-opacity="0.45" stroke-width="1"/><ellipse cx="210" cy="290" rx="19.72" ry="58" fill="url(#steel-f)" stroke="#4b545e" stroke-opacity="0.5" stroke-width="1"/><ellipse cx="210" cy="290" rx="12.92" ry="38" fill="url(#hole-f)"/><path d="M210 252A12.92 38 0 0 1 210 328A7.11 38 0 0 0 210 252Z" fill="#000" opacity="0.35"/><rect x="227.75" y="259.84" width="22.25" height="2.9" rx="1" fill="#fff" opacity="0.55"/><path d="M140 240H210A17 50 0 0 1 210 340H140Z" fill="url(#steel-b)" stroke="#4b545e" stroke-opacity="0.45" stroke-width="1"/><ellipse cx="140" cy="290" rx="17" ry="50" fill="url(#steel-f)" stroke="#4b545e" stroke-opacity="0.5" stroke-width="1"/><ellipse cx="140" cy="290" rx="12.92" ry="38" fill="url(#hole-f)"/><path d="M140 252A12.92 38 0 0 1 140 328A7.11 38 0 0 0 140 252Z" fill="#000" opacity="0.35"/><path d="M146 240q-15.3 50 0 100" stroke="#4b545e" stroke-opacity=".55" stroke-width="1.6" fill="none"/><path d="M153 240q-15.3 50 0 100" stroke="#4b545e" stroke-opacity=".55" stroke-width="1.6" fill="none"/><path d="M160 240q-15.3 50 0 100" stroke="#4b545e" stroke-opacity=".55" stroke-width="1.6" fill="none"/><path d="M167 240q-15.3 50 0 100" stroke="#4b545e" stroke-opacity=".55" stroke-width="1.6" fill="none"/><path d="M174 240q-15.3 50 0 100" stroke="#4b545e" stroke-opacity=".55" stroke-width="1.6" fill="none"/><path d="M181 240q-15.3 50 0 100" stroke="#4b545e" stroke-opacity=".55" stroke-width="1.6" fill="none"/><path d="M188 240q-15.3 50 0 100" stroke="#4b545e" stroke-opacity=".55" stroke-width="1.6" fill="none"/><path d="M195 240q-15.3 50 0 100" stroke="#4b545e" stroke-opacity=".55" stroke-width="1.6" fill="none"/><path d="M202 240q-15.3 50 0 100" stroke="#4b545e" stroke-opacity=".55" stroke-width="1.6" fill="none"/>
</svg>
